<svg width="11" height="13" viewBox="0 0 11 13" fill="none" xmlns="http://www.w3.org/2000/svg">
<path d="M5.63738 0.0268555C4.18525 0.0268555 2.98643 0.464294 2.04091 1.33922C1.11866 2.19117 0.657538 3.18122 0.657538 4.28638L4.02396 4.42453C4.02396 3.57264 4.60037 2.8589 5.68392 2.8589C6.72145 2.8589 7.22858 3.4805 7.22858 4.70084V5.16131L5.10751 5.27648C1.92563 5.41463 0.334961 6.61188 0.334961 8.89126C0.334961 11.1707 1.8331 12.4141 4.30053 12.4141C5.54588 12.4141 6.56016 11.9996 7.34386 11.1938V12.1608H10.595V4.81596C10.595 1.68458 8.86578 0.0268555 5.63738 0.0268555ZM7.22858 7.87823C7.22858 9.09851 6.35233 9.81226 5.08476 9.81226C4.16199 9.81226 3.70086 9.44387 3.70086 8.73013C3.70086 7.94733 4.27727 7.53288 5.4306 7.48681L7.22858 7.37169V7.87823Z" fill="#222222"/>
</svg>
