<svg width="14" height="19" viewBox="0 0 14 19" fill="none" xmlns="http://www.w3.org/2000/svg">
<path d="M7.48402 0.0268555C5.86957 0.0268555 4.69349 0.510363 3.9558 1.50046V0.257092H0.773926V18.0321H4.14087V11.1477C4.90131 11.9996 6.03138 12.4141 7.48402 12.4141C9.18998 12.4141 10.5734 11.8384 11.6342 10.7102C12.7177 9.58208 13.2476 8.08544 13.2476 6.22046C13.2476 4.35548 12.7177 2.8589 11.6342 1.73065C10.5734 0.602446 9.18998 0.0268555 7.48402 0.0268555ZM6.95311 2.90491C8.68285 2.90491 9.83566 4.12525 9.83566 6.22046C9.83566 8.31572 8.68285 9.53601 6.95311 9.53601C5.2699 9.53601 4.14087 8.36179 4.14087 6.49676V5.94416C4.14087 4.07918 5.2699 2.90491 6.95311 2.90491Z" fill="#222222"/>
</svg>
